<?xml version="1.0" encoding="UTF-8"?><svg xmlns="http://www.w3.org/2000/svg" viewBox="0 0 647.5 129.12"><defs><style>.d{fill:#fff;}</style></defs><g id="a"/><g id="b"><g id="c"><g><g><path class="d" d="M132.3,62.47c-.43-.37-.77-.55-1.01-.55-.18,0-.28,.09-.28,.28s.06,.37,.18,.55c.8,1.16,1.43,2.47,1.89,3.91,.46,1.44,.69,2.99,.69,4.65,0,2.58-.69,4.72-2.07,6.44-1.38,1.72-3.14,3.1-5.29,4.14-2.15,1.04-4.36,1.78-6.62,2.21-2.27,.43-4.32,.64-6.16,.64-6.26,0-12.27-.72-18.03-2.16-5.77-1.44-11.36-3.39-16.79-5.84-5.43-2.45-10.76-5.28-16.01-8.46-5.24-3.19-10.44-6.53-15.59-10.03,2.08-2.15,4.08-4.48,5.98-6.99,1.9-2.51,3.74-5.06,5.52-7.64,3.68-.49,7.33-1.67,10.95-3.54,3.62-1.87,7.02-4.19,10.21-6.95,3.19-2.76,6.01-5.73,8.46-8.92,2.45-3.19,4.37-6.42,5.75-9.71,1.38-3.28,2.07-6.36,2.07-9.25,0-1.23-.37-2.41-1.1-3.54-.74-1.13-1.9-1.7-3.5-1.7-3.01,0-5.74,.71-8.19,2.12-2.45,1.41-4.69,3.31-6.72,5.7-2.02,2.39-3.96,5.11-5.8,8.14-1.84,3.04-3.67,6.21-5.47,9.52-1.81,3.31-3.73,6.56-5.75,9.75-.61,.98-1.32,2.07-2.12,3.27-.8,1.2-1.66,2.44-2.58,3.73-3.31,0-6.23-.72-8.74-2.16-2.52-1.44-4.48-3.42-5.89-5.93-1.41-2.51-2.12-5.43-2.12-8.74,0-.67,.03-1.36,.09-2.07,.06-.7,.15-1.39,.28-2.07,.55-3.07,1.73-5.72,3.54-7.96,1.81-2.24,3.89-3.97,6.26-5.2,2.36-1.23,4.61-1.84,6.76-1.84,1.47,0,2.79,.37,3.96,1.1,.31,.18,.58,.22,.83,.09,.24-.12,.37-.31,.37-.55,0-.37-.34-.7-1.01-1.01-1.96-.98-4.05-1.47-6.26-1.47-3.07,0-5.98,.86-8.74,2.58-2.76,1.72-5.01,3.96-6.76,6.72-1.75,2.76-2.71,5.67-2.9,8.74-.18,4.11,.57,7.74,2.25,10.9,1.69,3.16,4.02,5.64,6.99,7.45,2.97,1.81,6.3,2.84,9.98,3.08-1.6,2.09-3.21,4.17-4.83,6.26-1.63,2.09-3.3,4.05-5.01,5.89-4.17-2.82-8.37-5.67-12.6-8.56-4.23-2.88-8.53-5.64-12.88-8.28-2.09-1.23-4.16-2.22-6.21-2.99-2.06-.77-3.94-1.15-5.66-1.15-1.96,0-3.56,.6-4.78,1.79-1.23,1.2-1.84,3.24-1.84,6.12,0,1.41,.18,3.1,.55,5.06,.31,1.41,.87,3.1,1.7,5.06,.83,1.96,1.89,3.94,3.17,5.93,1.29,1.99,2.76,3.79,4.42,5.38,1.96,1.9,4.43,3.37,7.41,4.42,2.97,1.04,5.63,1.56,7.96,1.56,3.62,0,7.14-.98,10.58-2.94,3.43-1.96,6.72-4.51,9.84-7.64,5.64,3.74,11.25,7.31,16.84,10.72,5.58,3.4,11.21,6.44,16.88,9.11,5.67,2.67,11.42,4.77,17.25,6.3,5.83,1.53,11.78,2.3,17.85,2.3,6.87,0,12.11-1.44,15.73-4.32,3.62-2.88,5.43-7.12,5.43-12.7,0-1.29-.23-2.81-.69-4.55s-1.33-3.14-2.62-4.19ZM62.05,38.46c.64-1.04,1.24-2.02,1.79-2.94,2.76-4.72,5.53-9.52,8.33-14.4,2.79-4.88,5.72-9.28,8.79-13.2,1.23-1.53,2.59-2.93,4.09-4.19,1.5-1.26,3.14-1.89,4.92-1.89,1.1,0,1.85,.38,2.25,1.15,.4,.77,.6,1.67,.6,2.71,0,1.1-.14,2.22-.41,3.36-.28,1.14-.54,1.95-.78,2.44-.98,2.52-2.5,5.32-4.55,8.42-2.06,3.1-4.49,6.15-7.31,9.15-2.82,3.01-5.9,5.63-9.25,7.87-3.34,2.24-6.82,3.79-10.44,4.65,.67-1.04,1.33-2.08,1.98-3.13Zm-28.57,26.5c-3.13,1.9-6.44,2.85-9.94,2.85-1.35,0-2.71-.15-4.09-.46-1.38-.31-2.78-.8-4.19-1.47-1.47-.8-2.79-1.72-3.96-2.76-2.39-2.45-4.2-5.26-5.43-8.42-1.23-3.16-2.09-6.24-2.58-9.25-.06-.18-.09-.37-.09-.55v-.55c0-1.59,.57-2.84,1.7-3.73,1.13-.89,2.59-1.33,4.37-1.33,1.23,0,2.59,.22,4.09,.64,1.5,.43,3.05,1.14,4.65,2.12,4.17,2.45,8.28,5.01,12.33,7.68s8.06,5.32,12.05,7.96c-2.82,2.94-5.8,5.37-8.92,7.27Z"/><path class="d" d="M140.67,46.28c-.18,0-.34,.03-.46,.09-.61,.61-1.2,1.1-1.75,1.47-.55,.37-1.17,.83-1.84,1.38-2.64,2.21-5.58,4.39-8.83,6.53-3.25,2.15-6.5,3.83-9.75,5.06-3.01,1.1-5.28,1.66-6.81,1.66-2.02,0-3.04-.92-3.04-2.76,0-1.16,.34-2.61,1.01-4.32,.67-1.72,1.53-3.65,2.58-5.8,.24-.55,.44-1.06,.6-1.52,.15-.46,.23-.84,.23-1.15s-.09-.55-.28-.74c-.55-.43-1.26-.64-2.12-.64-.37,0-.71,.09-1.01,.28-1.9,1.72-4.08,3.57-6.53,5.57-2.45,1.99-4.66,3.82-6.62,5.47-.49,.43-1.35,1.07-2.58,1.93-1.23,.86-2.56,1.63-4,2.3-1.44,.68-2.71,1.01-3.82,1.01-.74,0-1.33-.21-1.79-.64-.46-.43-.69-1.2-.69-2.3v-.46c0-.18,.03-.37,.09-.55,.18-1.29,.83-2.71,1.93-4.28s2.48-3.17,4.14-4.83c1.66-1.66,3.43-3.16,5.34-4.51,1.1-.86,2.5-1.72,4.19-2.58,1.69-.86,3.45-1.64,5.29-2.35,1.84-.7,3.57-1.29,5.2-1.75,1.62-.46,2.99-.69,4.09-.69,1.23,0,2.08,.29,2.58,.87,.49,.58,.74,1.37,.74,2.35v.87c0,.34-.06,.66-.18,.97-.18,.68-.12,1.01,.18,1.01,.18,0,.44-.21,.78-.64,.34-.43,.57-1.01,.69-1.75,.06-.37,.11-.72,.14-1.06,.03-.34,.05-.66,.05-.97,0-3.56-2.09-5.34-6.26-5.34-2.45,0-5.34,.58-8.65,1.75-3.07,1.04-6,2.48-8.79,4.32-2.79,1.84-5.26,3.85-7.41,6.03-2.15,2.18-3.85,4.36-5.11,6.53-1.26,2.18-1.89,4.16-1.89,5.93,0,1.41,.4,2.55,1.2,3.4,1.16,1.35,2.67,2.02,4.51,2.02s3.8-.55,5.89-1.66c2.08-1.1,4.12-2.44,6.12-4,1.99-1.56,3.79-3.11,5.38-4.65,1.59-1.53,2.79-2.76,3.59-3.68-.49,1.23-.94,2.53-1.33,3.91-.4,1.38-.63,2.71-.69,4,0,2.52,.69,4.23,2.07,5.15s2.99,1.38,4.83,1.38c1.16,0,2.35-.14,3.54-.41,1.2-.28,2.25-.57,3.17-.87,2.45-.86,4.89-2.04,7.31-3.54,2.42-1.5,4.68-3.07,6.76-4.69,2.08-1.62,3.83-3.1,5.24-4.42,1.41-1.32,2.3-2.22,2.67-2.71,.24-.31,.37-.55,.37-.74s-.09-.28-.28-.28Z"/><path class="d" d="M581.07,31.83c.61,0,1.24-.24,1.89-.74,.64-.49,1.12-1.13,1.43-1.93,.25-.49,.71-.92,1.38-1.29,.67-.37,1.32-.67,1.93-.92,.61-.24,.92-.43,.92-.55,0-.06-.28-.09-.83-.09-.68,0-1.61,.08-2.81,.23-1.2,.15-2.32,.4-3.36,.74-1.04,.34-1.66,.75-1.84,1.24-.25,.49-.37,.98-.37,1.47,0,1.23,.55,1.84,1.66,1.84Z"/><path class="d" d="M647.22,46.28c-.19,0-.34,.03-.46,.09-.61,.61-1.2,1.1-1.75,1.47-.55,.37-1.17,.83-1.84,1.38-2.64,2.21-5.58,4.39-8.83,6.53-3.25,2.15-6.5,3.83-9.75,5.06-3.01,1.1-5.28,1.66-6.81,1.66-2.02,0-3.04-.92-3.04-2.76,0-1.16,.34-2.61,1.01-4.32,.67-1.72,1.53-3.65,2.58-5.8,.24-.55,.44-1.06,.6-1.52,.15-.46,.23-.84,.23-1.15s-.09-.55-.28-.74c-.55-.43-1.26-.64-2.12-.64-.37,0-.71,.09-1.01,.28-1.9,1.72-4.08,3.57-6.53,5.57-2.46,1.99-4.66,3.82-6.62,5.47-.49,.43-1.35,1.07-2.58,1.93-1.23,.86-2.56,1.63-4,2.3-1.44,.68-2.71,1.01-3.82,1.01-.73,0-1.33-.21-1.79-.64-.46-.43-.69-1.2-.69-2.3v-.46c0-.18,.03-.37,.09-.55,.18-1.29,.83-2.71,1.93-4.28s2.48-3.17,4.14-4.83c1.65-1.66,3.43-3.16,5.34-4.51,1.1-.86,2.5-1.72,4.19-2.58,1.69-.86,3.45-1.64,5.29-2.35,1.84-.7,3.57-1.29,5.2-1.75,1.62-.46,2.99-.69,4.09-.69,1.23,0,2.08,.29,2.58,.87,.49,.58,.74,1.37,.74,2.35v.87c0,.34-.06,.66-.19,.97-.18,.68-.12,1.01,.19,1.01,.18,0,.44-.21,.78-.64,.34-.43,.57-1.01,.69-1.75,.06-.37,.11-.72,.14-1.06,.03-.34,.04-.66,.04-.97,0-3.56-2.09-5.34-6.26-5.34-2.45,0-5.34,.58-8.65,1.75-3.07,1.04-6,2.48-8.79,4.32-2.79,1.84-5.26,3.85-7.41,6.03-1.74,1.76-3.17,3.53-4.33,5.29-.83,.69-1.67,1.38-2.48,2.07-2.58,2.18-5.37,4.03-8.37,5.57-1.9,.98-3.94,1.83-6.12,2.53-2.18,.71-4.4,1.06-6.67,1.06-2.76,0-4.14-.86-4.14-2.58,0-1.59,1.13-3.83,3.4-6.72,.61-.74,1.46-1.67,2.53-2.81,1.07-1.13,2.22-2.28,3.45-3.45,1.23-1.16,2.36-2.21,3.4-3.13,1.04-.92,1.81-1.56,2.3-1.93,.25-.18,.49-.43,.74-.74,.24-.31,.37-.61,.37-.92,0-.55-.35-.98-1.06-1.29-.71-.31-1.4-.46-2.07-.46-.31,0-.64,.06-1.01,.18-1.41,.61-2.48,1.41-3.22,2.39-.74,.98-.83,1.53-.28,1.66-.61,.55-1.55,1.4-2.81,2.53-1.12,1.01-2.26,2.18-3.4,3.49-1.83,1.49-3.8,2.98-5.93,4.47-3.07,2.15-6.24,4.05-9.52,5.7-3.28,1.66-6.52,2.82-9.71,3.5-.61,.12-1.29,.22-2.02,.28-.74,.06-1.47,.09-2.21,.09-1.47,0-2.9-.17-4.28-.51-1.38-.34-2.52-.92-3.4-1.75-.89-.83-1.33-1.92-1.33-3.27s.54-2.97,1.61-4.69c1.07-1.72,2.47-3.42,4.19-5.11,1.72-1.69,3.57-3.22,5.57-4.6,1.99-1.38,3.91-2.5,5.75-3.36,1.84-.86,3.4-1.29,4.69-1.29,1.96,0,2.94,.58,2.94,1.75,0,.68-.34,1.46-1.01,2.35-.67,.89-1.47,1.72-2.39,2.48-.92,.77-1.78,1.37-2.58,1.79-.98,.49-1.64,1.06-1.98,1.7-.34,.64-.29,.97,.14,.97,.24,0,.49-.09,.74-.28,1.41-.8,2.97-1.78,4.69-2.94,1.72-1.16,3.16-2.5,4.32-4,1.16-1.5,1.62-3.08,1.38-4.74-.06-.67-.58-1.23-1.56-1.66-.98-.43-2.21-.64-3.68-.64-1.29,0-2.73,.18-4.32,.55-1.6,.37-3.22,.98-4.88,1.84-2.7,1.41-5.26,3.17-7.68,5.29-2.42,2.12-4.37,4.34-5.84,6.67-.39,.62-.73,1.24-1.02,1.85-2.12,1.67-4.42,3.33-6.9,4.96-3.25,2.15-6.5,3.83-9.75,5.06-2.09,.74-3.8,1.1-5.15,1.1s-2.35-.34-2.99-1.01c-.64-.67-.97-1.59-.97-2.76,0-.8,.12-1.67,.37-2.62,.24-.95,.58-1.92,1.01-2.9,.55-1.29,1.06-2.7,1.52-4.23,.46-1.53,.69-2.88,.69-4.05,0-1.35-.29-2.28-.87-2.81-.58-.52-1.3-.78-2.16-.78-.98,0-1.99,.2-3.04,.6-1.04,.4-1.9,.81-2.58,1.24-1.66,1.1-3.57,2.55-5.75,4.32-2.18,1.78-4.34,3.65-6.49,5.61-2.15,1.96-4.06,3.76-5.75,5.38-1.69,1.63-2.9,2.87-3.63,3.73,.31-.43,1.12-1.46,2.44-3.08,1.32-1.62,2.81-3.39,4.46-5.29,.87-1.01,1.73-1.99,2.59-2.94,.12-.11,.24-.22,.36-.32,1.41-1.32,2.3-2.22,2.67-2.71,.24-.31,.37-.55,.37-.74,0-.03-.02-.04-.02-.06,.88-1.11,1.69-2.28,2.41-3.53,.67-1.1,1.01-2.12,1.01-3.04,0-.74-.18-1.38-.55-1.93-.37-.55-.74-1.04-1.1-1.47-.43-.55-.89-1.04-1.38-1.47-.49-.43-.95-.77-1.38-1.01-.43-.31-.8-.46-1.1-.46-.25,0-.37,.12-.37,.37,0,.55,.31,1.07,.92,1.56,.67,.49,1.01,1.26,1.01,2.3s-.32,2.24-.97,3.59c-.64,1.35-1.43,2.71-2.35,4.09s-1.81,2.65-2.67,3.82c-.86,1.17-1.53,2.09-2.02,2.76-.2,.29-.42,.61-.66,.94-1.26,.92-2.57,1.83-3.94,2.74-3.25,2.15-6.5,3.83-9.75,5.06-3.01,1.1-5.28,1.66-6.81,1.66-2.02,0-3.04-.92-3.04-2.76,0-1.16,.34-2.61,1.01-4.32,.67-1.72,1.53-3.65,2.58-5.8,.24-.55,.44-1.06,.6-1.52,.15-.46,.23-.84,.23-1.15s-.09-.55-.28-.74c-.55-.43-1.26-.64-2.12-.64-.37,0-.71,.09-1.01,.28-1.9,1.72-4.08,3.57-6.53,5.57-2.45,1.99-4.66,3.82-6.62,5.47-.49,.43-1.35,1.07-2.58,1.93-1.23,.86-2.56,1.63-4,2.3-1.44,.68-2.71,1.01-3.82,1.01-.74,0-1.33-.21-1.79-.64-.46-.43-.69-1.2-.69-2.3v-.46c0-.18,.03-.37,.09-.55,.18-1.29,.83-2.71,1.93-4.28,1.1-1.56,2.48-3.17,4.14-4.83,1.66-1.66,3.43-3.16,5.34-4.51,1.1-.86,2.5-1.72,4.19-2.58,1.69-.86,3.45-1.64,5.29-2.35,1.84-.7,3.57-1.29,5.2-1.75,1.62-.46,2.99-.69,4.09-.69,1.23,0,2.08,.29,2.58,.87,.49,.58,.74,1.37,.74,2.35v.87c0,.34-.06,.66-.18,.97-.18,.68-.12,1.01,.18,1.01,.18,0,.44-.21,.78-.64,.34-.43,.57-1.01,.69-1.75,.06-.37,.11-.72,.14-1.06,.03-.34,.05-.66,.05-.97,0-3.56-2.09-5.34-6.26-5.34-2.45,0-5.34,.58-8.65,1.75-3.07,1.04-6,2.48-8.79,4.32-2.79,1.84-5.26,3.85-7.41,6.03-2.05,2.08-3.68,4.16-4.92,6.24-1.37,1.04-2.8,2.09-4.33,3.15-2.79,1.93-5.63,3.54-8.51,4.83-.43,.18-.84,.37-1.24,.55-.4,.18-.81,.34-1.24,.46-3.86,1.41-7.3,2.12-10.3,2.12-1.9,0-3.44-.34-4.6-1.01-1.17-.67-1.75-1.69-1.75-3.04s.69-3.07,2.07-5.15c1.25-1.88,2.85-3.91,4.78-6.08,.02,0,.04,0,.05,0,.37,0,.55-.15,.55-.46,0-.05-.03-.1-.08-.14,.03-.03,.05-.06,.08-.09,2.21-2.42,4.6-4.84,7.18-7.27,2.58-2.42,5.09-4.68,7.54-6.76,2.51,.43,5.17,.83,7.96,1.2,2.79,.37,5.5,.55,8.14,.55,3.25,0,6.22-.34,8.92-1.01,2.7-.67,4.88-1.85,6.53-3.54,1.66-1.69,2.48-3.97,2.48-6.85,0-.31-.02-.64-.05-1.01-.03-.37-.08-.74-.14-1.1-.12-.31-.34-.46-.64-.46s-.46,.15-.46,.46v.09c.37,2.76-.17,4.92-1.61,6.49-1.44,1.56-3.48,2.67-6.12,3.31-2.64,.64-5.58,.97-8.83,.97-2.15,0-4.4-.11-6.76-.32-2.36-.21-4.68-.51-6.95-.87,1.78-1.41,3.34-2.64,4.69-3.68,1.35-1.04,2.39-1.78,3.13-2.21,.31-.18,.87-.57,1.7-1.15,.83-.58,1.24-1.06,1.24-1.43,0-.43-.37-.83-1.1-1.2-.74-.37-1.52-.64-2.35-.83-.83-.18-1.46-.18-1.89,0-1.17,.49-2.12,1.1-2.85,1.84-.74,.74-1.1,1.41-1.1,2.02,0,.31,.09,.55,.28,.74l-5.98,5.24c-2.45-.49-4.77-.98-6.95-1.47-2.18-.49-4-.95-5.47-1.38-2.21-.55-4.89-1.24-8.05-2.07-3.16-.83-6.62-1.64-10.4-2.44-3.77-.8-7.7-1.47-11.78-2.02-4.08-.55-8.11-.83-12.1-.83s-7.7,.35-11.32,1.06c-3.62,.71-6.9,1.89-9.84,3.54-2.94,1.66-5.4,3.93-7.36,6.81-.37,.55-.55,1.1-.55,1.66,0,.49,.12,.74,.37,.74,.37,0,.71-.28,1.01-.83,2.52-3.92,6.16-6.64,10.95-8.14,4.78-1.5,10.06-2.25,15.82-2.25,4.42,0,8.94,.32,13.57,.97,4.63,.64,9.15,1.44,13.57,2.39,4.42,.95,8.54,1.9,12.37,2.85,3.83,.95,7.16,1.76,9.98,2.44,.61,.12,1.26,.28,1.93,.46,.67,.18,1.38,.34,2.12,.46-2.39,2.21-4.83,4.54-7.31,6.99-2.48,2.45-4.8,4.91-6.95,7.36-.05,.06-.1,.12-.15,.18h-1.32c-1.84,0-3.97,.08-6.39,.23-2.42,.15-4.95,.38-7.59,.69-2.64,.31-5.15,.72-7.54,1.24-2.39,.52-4.45,1.18-6.16,1.98-.86-.92-1.72-1.9-2.58-2.94-.86-1.04-1.29-2.18-1.29-3.4s.6-2.59,1.79-3.91c1.2-1.32,2.68-2.5,4.46-3.54,1.78-1.04,3.62-1.89,5.52-2.53,1.9-.64,3.53-.97,4.88-.97,1.23,0,2.08,.25,2.58,.74,.24,.25,.37,.58,.37,1.01,0,.8-.37,1.78-1.1,2.94-.74,1.17-1.58,2.22-2.53,3.17-.95,.95-1.76,1.61-2.44,1.98-.25,.12-.32,.28-.23,.46,.09,.18,.26,.28,.51,.28,.31,0,.58-.12,.83-.37,.55-.49,1.39-1.07,2.53-1.75,1.13-.67,2.19-1.47,3.17-2.39,.98-.92,1.47-1.99,1.47-3.22,0-1.04-.46-2.12-1.38-3.22-.37-.43-.98-.83-1.84-1.2-.86-.37-1.99-.55-3.4-.55-1.1,0-2.38,.15-3.82,.46-1.44,.31-3.05,.86-4.83,1.66-3.74,1.72-6.46,3.4-8.14,5.06-1.69,1.66-2.53,3.37-2.53,5.15,0,.87,.2,1.74,.55,2.62-.06,.02-.12,.02-.18,.05-.61,.61-1.2,1.1-1.75,1.47-.55,.37-1.17,.83-1.84,1.38-2.64,2.21-5.58,4.39-8.83,6.53-3.25,2.15-6.5,3.83-9.75,5.06-2.09,.74-3.8,1.1-5.15,1.1s-2.35-.34-2.99-1.01c-.64-.67-.97-1.59-.97-2.76,0-.8,.12-1.67,.37-2.62,.24-.95,.58-1.92,1.01-2.9,.55-1.29,1.06-2.7,1.52-4.23,.46-1.53,.69-2.88,.69-4.05,0-1.35-.29-2.28-.87-2.81-.58-.52-1.3-.78-2.16-.78-.98,0-1.99,.2-3.04,.6-1.04,.4-1.9,.81-2.58,1.24-1.66,1.1-3.57,2.55-5.75,4.32-2.18,1.78-4.34,3.65-6.49,5.61-2.15,1.96-4.06,3.76-5.75,5.38-1.69,1.63-2.9,2.87-3.63,3.73,.31-.43,1.12-1.46,2.44-3.08,1.32-1.62,2.81-3.39,4.46-5.29,1.53-1.78,3.04-3.46,4.51-5.06,1.47-1.59,2.76-3.34,3.86-5.24,.67-1.1,1.01-2.12,1.01-3.04,0-.74-.18-1.38-.55-1.93-.37-.55-.74-1.04-1.1-1.47-.43-.55-.89-1.04-1.38-1.47-.49-.43-.95-.77-1.38-1.01-.43-.31-.8-.46-1.1-.46-.25,0-.37,.12-.37,.37,0,.55,.31,1.07,.92,1.56,.67,.49,1.01,1.26,1.01,2.3s-.32,2.24-.97,3.59c-.02,.04-.05,.09-.07,.13-.05-.02-.09-.04-.16-.04-.25,0-.58,.12-1.01,.37-.86,.43-2.13,.86-3.82,1.29-1.69,.43-3.53,.78-5.52,1.06-1.99,.28-3.91,.41-5.75,.41-.92,0-1.9,.02-2.94,.05-1.04,.03-2.09,.02-3.13-.05,.12-.86,.12-1.69,0-2.48-.25-1.9-1.07-3.53-2.48-4.88-1.41-1.35-3.07-2.18-4.97-2.48-1.35-.18-2.73-.28-4.14-.28-1.1,0-2.16,.05-3.17,.14s-1.95,.29-2.81,.6c-1.66,.49-2.88,1.15-3.68,1.98-.8,.83-1.2,1.7-1.2,2.62,0,.98,.4,1.87,1.2,2.67-1.29,.55-2.68,1.67-4.19,3.36-1.28,1.43-2.43,2.95-3.49,4.53-3,2.33-6.19,4.41-9.58,6.23-5.31,2.85-10.81,5.18-16.51,6.99-5.7,1.81-11.35,3.19-16.93,4.14-5.58,.95-10.83,1.52-15.73,1.7-6.2,.06-11.75-.61-16.65-2.02-4.91-1.41-8.77-3.47-11.59-6.16-2.82-2.7-4.23-5.89-4.23-9.57,0-4.42,1.21-8.46,3.63-12.14,2.42-3.68,5.67-6.95,9.75-9.8,4.08-2.85,8.62-5.26,13.62-7.22,5-1.96,10.04-3.43,15.13-4.42,5.09,2.09,10.21,4.06,15.36,5.93,5.15,1.87,9.75,3.17,13.8,3.91,1.23,.18,2.27,.28,3.13,.28,2.51,0,4.31-.54,5.38-1.61s1.61-2.13,1.61-3.17c0-.43-.09-.83-.28-1.2-1.1-2.27-3.65-4.09-7.64-5.47-3.99-1.38-8.62-2.25-13.89-2.62-.55-.06-1.14-.09-1.75-.09h-1.84c-4.72,0-9.84,.52-15.36,1.56-1.9-.8-3.7-1.56-5.38-2.3-1.69-.74-3.21-1.41-4.55-2.02-3.07-1.47-6.55-2.93-10.44-4.37-3.9-1.44-7.87-2.65-11.91-3.63-4.05-.98-7.85-1.47-11.41-1.47-3.37,0-6.35,.6-8.92,1.79-2.58,1.2-4.39,3.24-5.43,6.12-.25,.68-.43,1.35-.55,2.02-.12,.68-.18,1.35-.18,2.02,0,2.52,.75,4.86,2.25,7.04,1.5,2.18,3.39,3.99,5.66,5.43,2.27,1.44,4.54,2.41,6.81,2.9,.55,.18,.83,.15,.83-.09,0-.31-.31-.58-.92-.83-.98-.43-2.16-1.13-3.54-2.12-1.38-.98-2.67-2.04-3.86-3.17-1.2-1.13-2.1-2.07-2.71-2.81-1.47-1.9-2.21-3.77-2.21-5.61s.72-3.56,2.16-4.97c1.44-1.41,3.28-2.51,5.52-3.31,2.24-.8,4.58-1.2,7.04-1.2,3.19,0,6.56,.37,10.12,1.1,3.56,.74,7.04,1.66,10.44,2.76s6.45,2.24,9.15,3.4c1.41,.61,2.88,1.24,4.42,1.89,1.53,.64,3.07,1.3,4.6,1.98-5.28,1.23-10.46,2.93-15.55,5.11-5.09,2.18-9.71,4.78-13.85,7.82-4.14,3.04-7.44,6.47-9.89,10.3-2.45,3.83-3.68,8.05-3.68,12.65,0,3.86,1.16,7.35,3.5,10.44,2.33,3.1,5.95,5.55,10.86,7.36,4.91,1.81,11.25,2.71,19.04,2.71h1.89c.64,0,1.27-.03,1.89-.09,4.42-.12,9.14-.6,14.17-1.43,5.03-.83,10.15-2.02,15.36-3.59,5.21-1.56,10.3-3.51,15.27-5.84,4.23-2.02,7.88-4.19,10.95-6.49,.53-.4,1.05-.83,1.57-1.25-.4,.81-.71,1.55-.92,2.22-.18,.43-.31,.87-.37,1.33-.06,.46-.09,.94-.09,1.43,0,1.47,.47,2.79,1.43,3.96,.95,1.16,2.53,1.75,4.74,1.75s4.57-.48,7.27-1.43c2.7-.95,5.35-2.27,7.96-3.96,2.61-1.69,4.88-3.63,6.81-5.84s3.2-4.57,3.82-7.08c1.29,0,2.48-.01,3.59-.05,1.1-.03,2.05-.08,2.85-.14,3.07-.12,5.99-.51,8.79-1.15,2.79-.64,4.86-1.27,6.21-1.89,.24-.1,.45-.21,.63-.31-.49,.91-1.02,1.83-1.64,2.75-.92,1.38-1.81,2.65-2.67,3.82-.86,1.17-1.53,2.09-2.02,2.76-.74,1.04-1.66,2.39-2.76,4.05-1.1,1.66-2.09,3.28-2.94,4.88-.86,1.6-1.29,2.82-1.29,3.68,0,.74,.34,1.1,1.01,1.1,.31,0,.86-.45,1.66-1.33,.8-.89,1.78-1.99,2.94-3.31,1.16-1.32,2.39-2.59,3.68-3.82,1.53-1.47,3.16-3,4.88-4.6,1.72-1.59,3.33-3.05,4.83-4.37,1.5-1.32,2.59-2.19,3.27-2.62,.74-.49,1.58-1,2.53-1.52,.95-.52,1.76-.78,2.44-.78,1.04,0,1.56,.74,1.56,2.21v.6c0,.22-.03,.45-.09,.69-.18,1.23-.54,2.44-1.06,3.63-.52,1.2-1,2.38-1.43,3.54-.61,1.66-.92,3.1-.92,4.32,0,1.96,.67,3.34,2.02,4.14,1.35,.8,2.94,1.2,4.78,1.2,1.1,0,2.25-.11,3.45-.32,1.2-.22,2.35-.48,3.45-.78,2.45-.86,4.89-2.04,7.31-3.54,2.42-1.5,4.68-3.07,6.76-4.69,2.08-1.62,3.83-3.1,5.24-4.42,1.41-1.32,2.3-2.22,2.67-2.71,.06-.1,.09-.18,.13-.26,.13,.26,.26,.51,.42,.77,.86,1.38,2.05,2.84,3.59,4.37-2.02,.8-4.11,1.86-6.26,3.17-2.15,1.32-3.99,2.7-5.52,4.14-1.53,1.44-2.52,2.78-2.94,4-.06,.18-.09,.46-.09,.83,0,.67,.26,1.2,.78,1.56,.52,.37,1.15,.61,1.89,.74,.31,.06,.64,.11,1.01,.14,.37,.03,.74,.05,1.1,.05,1.78,0,3.8-.29,6.07-.87,2.27-.58,4.32-1.46,6.16-2.62,1.35-.74,2.35-1.69,2.99-2.85,.64-1.16,.97-2.36,.97-3.59,0-1.72-.61-3.28-1.84-4.69,.74-.55,2.19-1.1,4.37-1.66,2.18-.55,4.71-1.06,7.59-1.52,2.88-.46,5.73-.83,8.56-1.1,2.52-.25,4.71-.38,6.59-.4-1.74,2.08-3.18,4.07-4.29,5.97-1.29,2.21-1.93,4.14-1.93,5.8,0,2.27,.78,3.8,2.35,4.6,1.56,.8,3.39,1.2,5.47,1.2,2.33,0,4.68-.29,7.04-.87,2.36-.58,4.15-1.09,5.38-1.52,2.45-.86,4.89-2.04,7.31-3.54,2.1-1.3,4.07-2.66,5.92-4.05-.35,1.05-.53,2.05-.53,2.99,0,1.41,.4,2.55,1.2,3.4,1.16,1.35,2.67,2.02,4.51,2.02s3.8-.55,5.89-1.66c2.08-1.1,4.12-2.44,6.12-4s3.79-3.11,5.38-4.65c1.59-1.53,2.79-2.76,3.59-3.68-.49,1.23-.94,2.53-1.33,3.91-.4,1.38-.63,2.71-.69,4,0,2.52,.69,4.23,2.07,5.15s2.99,1.38,4.83,1.38c1.16,0,2.35-.14,3.54-.41,1.2-.28,2.25-.57,3.17-.87,2.45-.86,4.89-2.04,7.31-3.54,1.08-.67,2.11-1.35,3.12-2.04-.85,1.33-1.65,2.64-2.34,3.93-.86,1.6-1.29,2.82-1.29,3.68,0,.74,.34,1.1,1.01,1.1,.31,0,.86-.45,1.66-1.33,.8-.89,1.78-1.99,2.94-3.31,1.16-1.32,2.39-2.59,3.68-3.82,1.53-1.47,3.16-3,4.88-4.6,1.72-1.59,3.33-3.05,4.83-4.37,1.5-1.32,2.59-2.19,3.27-2.62,.74-.49,1.58-1,2.53-1.52,.95-.52,1.76-.78,2.44-.78,1.04,0,1.56,.74,1.56,2.21v.6c0,.22-.03,.45-.09,.69-.18,1.23-.54,2.44-1.06,3.63-.52,1.2-1,2.38-1.43,3.54-.61,1.66-.92,3.1-.92,4.32,0,1.96,.67,3.34,2.02,4.14,1.35,.8,2.94,1.2,4.78,1.2,1.1,0,2.25-.11,3.45-.32,1.2-.22,2.35-.48,3.45-.78,2.45-.86,4.89-2.04,7.31-3.54,2.42-1.5,4.68-3.07,6.76-4.69,.37-.29,.71-.56,1.06-.84-.15,.7-.23,1.4-.23,2.08,0,1.29,.32,2.5,.97,3.63,.64,1.14,1.64,2.13,2.99,2.99,1.04,.61,2.19,1.07,3.45,1.38,1.26,.31,2.59,.46,4,.46,2.7,0,5.46-.43,8.28-1.29,2.82-.86,5.37-1.93,7.64-3.22,1.04-.61,2.36-1.46,3.96-2.53,1.59-1.07,3.23-2.22,4.92-3.45,.38-.27,.74-.55,1.1-.82-.17,.3-.34,.6-.5,.91-.92,1.78-1.38,3.59-1.38,5.43,0,1.72,.64,2.9,1.93,3.54,1.29,.64,2.79,.97,4.51,.97,1.96,0,4-.28,6.12-.83,2.12-.55,3.76-1.07,4.92-1.56,2.21-.98,4.37-2.16,6.49-3.54,1.67-1.09,3.23-2.19,4.67-3.3-.51,1.29-.76,2.5-.76,3.62,0,1.41,.4,2.55,1.2,3.4,1.16,1.35,2.67,2.02,4.51,2.02s3.8-.55,5.89-1.66c2.09-1.1,4.12-2.44,6.12-4,1.99-1.56,3.79-3.11,5.38-4.65,1.6-1.53,2.79-2.76,3.59-3.68-.49,1.23-.94,2.53-1.33,3.91s-.63,2.71-.69,4c0,2.52,.69,4.23,2.07,5.15s2.99,1.38,4.83,1.38c1.16,0,2.35-.14,3.54-.41,1.2-.28,2.25-.57,3.17-.87,2.45-.86,4.89-2.04,7.31-3.54,2.42-1.5,4.68-3.07,6.76-4.69,2.08-1.62,3.83-3.1,5.24-4.42,1.41-1.32,2.3-2.22,2.67-2.71,.25-.31,.37-.55,.37-.74s-.09-.28-.28-.28ZM224.48,16.79c1.96-.15,3.86-.23,5.7-.23,2.27,0,4.68,.15,7.22,.46,2.54,.31,4.92,.75,7.13,1.33,2.21,.58,4,1.33,5.38,2.25,1.38,.92,2.07,1.99,2.07,3.22,0,.61-.23,1.23-.69,1.84-.46,.61-1.3,.92-2.53,.92-.25,0-.51-.01-.78-.05-.28-.03-.57-.08-.87-.14-2.27-.43-4.98-1.09-8.14-1.98-3.16-.89-6.52-1.95-10.07-3.17-3.56-1.23-7.05-2.48-10.49-3.77,2.08-.31,4.11-.54,6.07-.69Zm62.7,33.17c-.95,1.23-1.89,2.27-2.81,3.13-1.72,1.6-3.57,3.1-5.57,4.51-1.99,1.41-3.9,2.56-5.7,3.45-1.81,.89-3.33,1.46-4.55,1.7-.37,.06-.71,.11-1.01,.14-.31,.03-.61,.05-.92,.05-2.15,0-3.22-.86-3.22-2.58,0-1.29,.51-2.81,1.52-4.55,1.01-1.75,2.24-3.46,3.68-5.15,1.44-1.69,2.87-3.08,4.28-4.19,1.41-1.1,2.51-1.66,3.31-1.66,.06,.06,.15,.09,.28,.09,.18,.12,.31,.15,.37,.09,1.72,.43,3.65,.74,5.8,.92,2.15,.18,4.45,.28,6.9,.28-.61,1.29-1.4,2.55-2.35,3.77Zm3.17-5.52c-2.27-.12-4.59-.37-6.95-.74-2.36-.37-4.59-.89-6.67-1.56-1.41-.43-2.12-1.01-2.12-1.75,0-.86,.95-1.66,2.85-2.39,1.9-.74,4.08-1.1,6.53-1.1,2.58,0,4.37,.45,5.38,1.33,1.01,.89,1.52,1.98,1.52,3.27,0,.92-.18,1.9-.55,2.94Zm74.98,17.2c-1.53,.98-3.21,1.75-5.01,2.3-1.81,.55-3.11,.83-3.91,.83-1.17,0-1.75-.37-1.75-1.1,0-.68,.44-1.55,1.33-2.62,.89-1.07,1.99-2.19,3.31-3.36,1.32-1.16,2.67-2.21,4.05-3.13s2.56-1.53,3.54-1.84c1.23,1.29,1.84,2.61,1.84,3.96,0,1.9-1.14,3.56-3.4,4.97Z"/></g><g><path class="d" d="M96.94,128.03l-.42-.36,2.74,.48v.78h-6.89v-.78l3.19-.48-.17,.28-1.68-4.9,.31,.22h-9.16l.34-.25-1.82,4.93-.14-.25,3.16,.45v.78h-6.64v-.78l2.69-.48-.39,.34,6.94-18.51,1.37-.06,6.55,18.59Zm-11.56-5.57l-.2-.25h8.54l-.17,.25-4.09-12.07,.31,.03-4.4,12.04Z"/><path class="d" d="M140.29,128.93v-.78l2.91-.48-.28,.34v-17.58l.31,.36-2.94-.39v-.78l4.06-.14h3.56c2.03,0,3.57,.42,4.62,1.27s1.57,2.08,1.57,3.68c0,1.51-.48,2.74-1.44,3.7-.96,.95-2.39,1.51-4.3,1.68l-.03-.17c.73,.09,1.32,.28,1.76,.55,.45,.27,.83,.63,1.15,1.09,.32,.46,.63,1.02,.95,1.69l2.44,4.98-.48-.31,2.27,.5v.78h-2.86l-2.6-5.6c-.37-.82-.74-1.47-1.11-1.95-.36-.48-.82-.82-1.37-1.04-.55-.21-1.32-.32-2.31-.32l-2.18,.03,.31-.28v8.23l-.28-.34,3.5,.48v.78h-7.22Zm4-9.55l-.31-.39h2.86c1.87,0,3.3-.38,4.31-1.13,1.01-.76,1.51-1.87,1.51-3.35,0-1.29-.42-2.27-1.25-2.94s-2.06-1.01-3.68-1.01h-3.75l.31-.31v9.13Z"/><path class="d" d="M207.68,129.12c-1.79,0-3.35-.37-4.66-1.11-1.32-.74-2.34-1.82-3.07-3.26-.73-1.44-1.09-3.21-1.09-5.32s.37-4,1.12-5.52c.75-1.51,1.8-2.67,3.16-3.46,1.36-.79,2.98-1.19,4.84-1.19,.97,0,1.99,.11,3.07,.34,1.07,.22,2.17,.57,3.29,1.04l-.17,4.03h-.9l-.36-3.53,.22,.31c-.84-.3-1.73-.55-2.66-.74-.93-.2-1.81-.29-2.63-.29-1.53,0-2.86,.36-3.99,1.08s-2,1.75-2.6,3.09c-.61,1.34-.91,2.95-.91,4.82,0,2.76,.67,4.88,2.02,6.36,1.34,1.47,3.17,2.21,5.49,2.21,.82,0,1.67-.1,2.56-.29s1.81-.48,2.76-.85l-.22,.39v-6.44l.31,.31-2.94-.31v-.81l6.44-.14v.81l-2.74,.48,.25-.34v6.89c-1.18,.49-2.31,.85-3.42,1.09s-2.16,.36-3.16,.36Z"/><path class="d" d="M272.78,124.67h.87v4.26h-13.92v-.78l2.91-.48-.28,.34v-17.58l.28,.36-2.91-.39v-.78l4-.14h9.55v4.09h-.87l-.45-3.28,.34,.28h-8.88l.31-.31v8.46l-.31-.28h7.9v1.06h-7.9l.31-.34v8.99l-.31-.31h9.24l-.36,.31,.48-3.47Z"/><path class="d" d="M330.94,109.61l6.44-.14v.78l-2.91,.5,.28-.36v18.54h-1.48l-12.01-17.98,.22-.03v17.08l-.28-.34,2.91,.48v.78h-6.47v-.78l2.91-.48-.28,.34v-17.61l.25,.36-2.88-.36v-.78l4.28-.14,11.84,17.72-.22,.03v-16.83l.31,.34-2.91-.34v-.78Z"/><path class="d" d="M382.54,128.93v-.78l3.33-.48-.31,.39v-17.81l.34,.31h-5.82l.39-.34-.5,3.58h-.87v-4.34h14.31v4.34h-.9l-.48-3.56,.36,.31h-5.8l.34-.31v17.81l-.31-.39,3.33,.48v.78h-7.42Z"/><path class="d" d="M442.1,110.25l-2.88,.5,.25-.31v17.53l-.25-.31,2.88,.48v.78h-6.64v-.78l2.88-.48-.25,.31v-17.53l.28,.31-2.91-.36v-.78l6.64-.14v.78Z"/><path class="d" d="M498.77,109.61l6.44-.14v.78l-2.91,.5,.28-.36v18.54h-1.48l-12.01-17.98,.22-.03v17.08l-.28-.34,2.91,.48v.78h-6.47v-.78l2.91-.48-.28,.34v-17.61l.25,.36-2.88-.36v-.78l4.28-.14,11.84,17.72-.22,.03v-16.83l.31,.34-2.91-.34v-.78Z"/><path class="d" d="M563.06,128.03l-.42-.36,2.74,.48v.78h-6.89v-.78l3.19-.48-.17,.28-1.68-4.9,.31,.22h-9.16l.34-.25-1.82,4.93-.14-.25,3.16,.45v.78h-6.64v-.78l2.69-.48-.39,.34,6.94-18.51,1.37-.06,6.55,18.59Zm-11.56-5.57l-.2-.25h8.54l-.17,.25-4.09-12.07,.31,.03-4.4,12.04Z"/></g></g></g></g></svg>